<svg xmlns="http://www.w3.org/2000/svg" xmlns:xlink="http://www.w3.org/1999/xlink" width="400" height="400" viewBox="0 0 400 400">
<rect data-name="background" width="100%" height="100%" fill="none"/><g data-name="container" data="container_num:25" fill="#40a1d2" transform="translate(270.10763609818423,141.33013948653178) scale(2.2962753810802763)"><path xmlns="http://www.w3.org/2000/svg" d="M25.69 46.68A20.88 20.88 0 1 1 46.57 25.8a20.9 20.9 0 0 1-20.88 20.88zm0-41.44A20.56 20.56 0 1 0 46.25 25.8 20.58 20.58 0 0 0 25.69 5.27z"/><path xmlns="http://www.w3.org/2000/svg" d="M25.71 3.78a.16.16 0 0 1-.16-.16V.16a.16.16 0 1 1 .32 0v3.46a.16.16 0 0 1-.16.16zM24.67 3.8a.16.16 0 0 1-.16-.15l-.14-3a.16.16 0 0 1 .15-.17.15.15 0 0 1 .17.15l.14 3a.16.16 0 0 1-.15.17zM23.64 3.87a.16.16 0 0 1-.16-.15l-.19-2.04a.16.16 0 0 1 .15-.17.16.16 0 0 1 .17.15l.19 2.08a.16.16 0 0 1-.15.17zM22.62 3.99a.16.16 0 0 1-.16-.14l-.16-1.17a.16.16 0 0 1 .14-.18.16.16 0 0 1 .18.14l.16 1.18a.16.16 0 0 1-.14.18zM21.61 4.16a.16.16 0 0 1-.16-.13l-.15-.82a.163.163 0 1 1 .32-.06l.15.82a.16.16 0 0 1-.13.19zM26.75 3.8a.16.16 0 0 1-.15-.17l.14-3a.15.15 0 0 1 .17-.15.16.16 0 0 1 .15.17l-.14 3a.16.16 0 0 1-.17.15zM27.77 3.87a.16.16 0 0 1-.15-.17l.19-2.08a.16.16 0 0 1 .17-.15.16.16 0 0 1 .15.17l-.2 2.04a.16.16 0 0 1-.16.19zM28.79 3.99a.16.16 0 0 1-.14-.18l.16-1.18a.16.16 0 0 1 .18-.14.16.16 0 0 1 .14.18l-.16 1.18a.16.16 0 0 1-.18.14zM29.8 4.16a.16.16 0 0 1-.13-.19l.15-.82a.163.163 0 1 1 .32.06l-.15.82a.16.16 0 0 1-.19.13zM16.67 5.68a.16.16 0 0 1-.15-.1l-1.36-3.14a.16.16 0 0 1 .29-.13l1.41 3.16a.16.16 0 0 1-.08.21h-.07zM15.73 6.14a.16.16 0 0 1-.14-.09l-1.36-2.7a.161.161 0 1 1 .29-.14l1.36 2.7a.16.16 0 0 1-.07.22zM14.83 6.62a.16.16 0 0 1-.14-.08l-1-1.82a.161.161 0 0 1 .28-.16l1 1.82a.16.16 0 0 1-.06.22zM13.94 7.14a.16.16 0 0 1-.14-.08l-.63-1a.16.16 0 0 1 .27-.17l.63 1a.16.16 0 0 1-.05.22zM13.08 7.68a.16.16 0 0 1-.13-.07l-.48-.69a.16.16 0 1 1 .26-.18l.48.69a.16.16 0 0 1 0 .22.16.16 0 0 1-.13.03zM17.63 5.29a.16.16 0 0 1-.15-.1l-1.1-2.81a.162.162 0 1 1 .3-.12l1.1 2.81a.16.16 0 0 1-.09.21h-.06zM18.6 4.94a.16.16 0 0 1-.15-.11l-.67-2a.16.16 0 0 1 .3-.1l.67 2a.16.16 0 0 1-.1.2h-.05zM19.58 4.68a.16.16 0 0 1-.15-.12l-.33-1.14a.161.161 0 1 1 .31-.09l.33 1.14a.16.16 0 0 1-.11.2zM20.57 4.37a.16.16 0 0 1-.16-.12l-.19-.82a.16.16 0 0 1 .31-.07l.19.82a.16.16 0 0 1-.12.19z"/><g xmlns="http://www.w3.org/2000/svg"><path d="M9.16 11.11a.16.16 0 0 1-.11 0L6.48 8.8a.163.163 0 1 1 .22-.24l2.57 2.31a.16.16 0 0 1-.11.24zM8.52 11.9a.16.16 0 0 1-.1 0L6.08 9.98a.16.16 0 0 1 .2-.25l2.34 1.92a.16.16 0 0 1-.1.25zM7.89 12.68a.16.16 0 0 1-.1 0l-1.63-1.25a.161.161 0 1 1 .19-.26l1.68 1.25a.16.16 0 0 1-.14.26zM7.29 13.55a.16.16 0 0 1-.09 0l-1-.67a.162.162 0 1 1 .18-.27l1 .67a.16.16 0 0 1-.09.27zM6.73 14.41h-.08l-.72-.44a.16.16 0 0 1 .17-.27l.72.44a.16.16 0 0 1-.09.27zM9.91 10.36a.16.16 0 0 1-.11 0L7.65 8.24a.163.163 0 1 1 .23-.23l2.15 2.12a.16.16 0 0 1-.12.23zM10.65 9.68a.16.16 0 0 1-.12-.05L9.11 8.09a.163.163 0 1 1 .24-.22l1.42 1.54a.16.16 0 0 1-.12.27zM11.42 8.96a.16.16 0 0 1-.12-.06l-.77-.91a.163.163 0 1 1 .25-.21l.77.91a.16.16 0 0 1-.13.27zM12.22 8.32a.16.16 0 0 1-.13-.06l-.51-.67a.164.164 0 1 1 .26-.2l.51.67a.16.16 0 0 1-.13.26z"/></g><g xmlns="http://www.w3.org/2000/svg"><path d="M4.57 19.11l-3.29-1.07a.163.163 0 0 1 .1-.31l3.29 1.07a.163.163 0 0 1-.1.31zM4.27 20.1l-2.91-.8a.161.161 0 1 1 .09-.31l2.91.8a.161.161 0 0 1-.09.31zM4.02 21.1l-2-.46a.16.16 0 0 1 .07-.31l2 .46a.16.16 0 0 1-.07.31zM3.82 22.1l-1.17-.21a.163.163 0 0 1 .06-.32l1.17.21a.163.163 0 0 1-.06.32zM3.66 23.12l-.83-.11a.16.16 0 1 1 0-.32l.83.11a.16.16 0 0 1 0 .32zM4.91 18.13h-.05l-2.83-1.07a.16.16 0 0 1-.09-.21.16.16 0 0 1 .21-.09l2.83 1.07a.16.16 0 0 1-.07.3zM5.3 17.17h-.06l-1.92-.83a.163.163 0 1 1 .13-.3l1.92.83a.16.16 0 0 1-.07.3zM5.73 16.24h-.07l-1.07-.52a.161.161 0 0 1 .14-.29l1.07.52a.16.16 0 0 1-.07.29zM6.16 15.33h-.08l-.74-.4a.16.16 0 0 1 .15-.28l.74.4a.16.16 0 0 1-.07.28z"/></g><g xmlns="http://www.w3.org/2000/svg"><path d="M.16 28.68a.16.16 0 0 1 0-.32L3.6 28a.16.16 0 0 1 .18.14.16.16 0 0 1-.14.18l-3.48.36zM.74 29.77a.16.16 0 0 1 0-.32l3-.45a.16.16 0 0 1 .18.13.16.16 0 0 1-.13.18l-3 .45zM1.85 30.74a.16.16 0 0 1 0-.32l2.05-.41a.163.163 0 1 1 .06.32l-2.05.41zM2.97 31.62a.16.16 0 0 1 0-.32l1.16-.29a.16.16 0 0 1 .08.31l-1.16.29zM3.6 32.56a.16.16 0 0 1 0-.32l.8-.24a.161.161 0 1 1 .09.31l-.8.24zM.5 27.43a.16.16 0 0 1 0-.32l3-.18a.16.16 0 0 1 0 .32l-3 .18zM1.38 26.25a.16.16 0 0 1 0-.32h2.09a.17.17 0 0 1 .16.16.16.16 0 0 1-.16.16H1.38zM3.48 25.2H2.29a.16.16 0 0 1-.16-.17.17.17 0 0 1 .17-.16h1.19a.165.165 0 0 1-.01.33zM3.54 24.17l-.84-.07a.16.16 0 0 1-.15-.17.16.16 0 0 1 .17-.15l.84.07a.16.16 0 0 1-.02.32z"/></g><g xmlns="http://www.w3.org/2000/svg"><path d="M3.45 38.8a.16.16 0 0 1-.08-.3l3-1.73a.161.161 0 0 1 .16.28l-3 1.73zM4.44 39.59a.16.16 0 0 1-.09-.3l2.54-1.63a.16.16 0 1 1 .17.27l-2.54 1.63zM5.85 40.02a.16.16 0 0 1-.09-.29l1.71-1.21a.161.161 0 0 1 .19.26l-1.71 1.21a.16.16 0 0 1-.1.03zM7.23 40.37a.16.16 0 0 1-.1-.29l.94-.73a.16.16 0 0 1 .2.25l-.94.73a.16.16 0 0 1-.1.04zM8.16 40.98a.16.16 0 0 1-.1-.28l.64-.55a.16.16 0 1 1 .21.24l-.64.55a.16.16 0 0 1-.11.04zM3.26 37.55a.16.16 0 0 1-.07-.3l2.68-1.39a.163.163 0 0 1 .15.29l-2.68 1.39zM3.59 36.11a.16.16 0 0 1-.07-.31l1.9-.87a.16.16 0 1 1 .13.29l-1.9.87h-.07zM3.98 34.74a.16.16 0 0 1-.06-.31l1.1-.45a.162.162 0 1 1 .12.3l-1.1.45h-.06zM3.93 33.62a.16.16 0 0 1-.05-.31l.79-.28a.16.16 0 1 1 .11.3l-.79.28h-.05z"/></g><g xmlns="http://www.w3.org/2000/svg"><path d="M10.58 46.74a.16.16 0 0 1-.13-.26l2-2.8a.161.161 0 0 1 .26.19l-2 2.8a.16.16 0 0 1-.13.07zM11.81 47.06h-.09a.16.16 0 0 1 0-.22l1.66-2.52a.162.162 0 1 1 .27.18l-1.66 2.52a.16.16 0 0 1-.18.04zM13.27 46.88h-.08a.16.16 0 0 1-.03-.2l1.07-1.8a.161.161 0 0 1 .28.16l-1.07 1.8a.16.16 0 0 1-.17.04zM14.67 46.68h-.08a.16.16 0 0 1-.07-.22l.56-1.05a.16.16 0 1 1 .28.15l-.56 1.05a.16.16 0 0 1-.13.07zM15.79 46.8h-.07a.16.16 0 0 1-.08-.21l.36-.76a.161.161 0 0 1 .29.14l-.36.76a.16.16 0 0 1-.14.07zM9.9 45.68a.16.16 0 0 1-.13-.26l1.89-2.36a.16.16 0 1 1 .25.2l-1.89 2.36a.16.16 0 0 1-.12.06zM9.62 44.23a.16.16 0 0 1-.12-.27l1.38-1.57a.16.16 0 1 1 .24.21l-1.38 1.57a.16.16 0 0 1-.12.06zM9.42 42.82a.16.16 0 0 1-.12-.27l.86-.87a.16.16 0 0 1 .23.22l-.83.86a.16.16 0 0 1-.14.06zM8.91 41.81a.16.16 0 0 1-.11-.28l.61-.58a.16.16 0 0 1 .22.23l-.61.58a.16.16 0 0 1-.11.05z"/></g><g xmlns="http://www.w3.org/2000/svg"><path d="M20.33 51.09a.16.16 0 0 1-.12-.19l.72-3.38a.16.16 0 0 1 .19-.12.16.16 0 0 1 .12.19l-.72 3.38a.16.16 0 0 1-.19.12zM21.58 50.88a.16.16 0 0 1-.13-.18l.49-3a.162.162 0 1 1 .32.05l-.49 3a.16.16 0 0 1-.19.13zM22.84 50.12a.16.16 0 0 1-.14-.18l.24-2.08a.16.16 0 0 1 .18-.14.16.16 0 0 1 .14.18l-.24 2.08a.16.16 0 0 1-.18.14zM24.02 49.33a.16.16 0 0 1-.15-.17l.08-1.19a.17.17 0 0 1 .17-.15.16.16 0 0 1 .15.17l-.11 1.19a.16.16 0 0 1-.14.15zM25.16 49.03a.16.16 0 0 1-.16-.16v-.84a.16.16 0 0 1 .32 0v.84a.16.16 0 0 1-.16.16zM19.27 50.39a.16.16 0 0 1-.11-.2l.76-2.92a.16.16 0 1 1 .31.08l-.76 2.92a.16.16 0 0 1-.2.12zM18.43 49.18a.16.16 0 0 1-.11-.2l.62-2a.163.163 0 1 1 .31.1l-.62 2a.16.16 0 0 1-.2.1zM17.67 47.98h-.05a.16.16 0 0 1-.1-.21l.41-1.12a.16.16 0 1 1 .3.11l-.41 1.12a.16.16 0 0 1-.15.1zM16.8 47.26h-.06a.16.16 0 0 1-.09-.21l.32-.77a.162.162 0 0 1 .3.12l-.32.77a.16.16 0 0 1-.15.09z"/></g><g xmlns="http://www.w3.org/2000/svg"><path d="M31 51.1a.16.16 0 0 1-.16-.13l-.68-3.38a.16.16 0 0 1 .12-.19.16.16 0 0 1 .19.12l.72 3.38a.16.16 0 0 1-.12.19zM32.06 50.4a.16.16 0 0 1-.16-.12l-.74-2.92a.16.16 0 0 1 .11-.2.16.16 0 0 1 .2.11l.76 2.92a.16.16 0 0 1-.11.2zM32.9 49.19a.16.16 0 0 1-.15-.11l-.62-2a.163.163 0 0 1 .31-.1l.62 2a.16.16 0 0 1-.11.2zM33.66 47.99a.16.16 0 0 1-.15-.11l-.41-1.12a.16.16 0 0 1 .3-.11l.41 1.12a.16.16 0 0 1-.1.21h-.05zM34.53 47.27a.16.16 0 0 1-.15-.1l-.32-.77a.162.162 0 1 1 .3-.12l.32.77a.16.16 0 0 1-.09.21h-.06zM29.75 50.89a.16.16 0 0 1-.16-.13l-.49-3a.162.162 0 0 1 .32-.05l.49 3a.16.16 0 0 1-.13.18zM28.49 50.13a.16.16 0 0 1-.16-.14l-.24-2.08a.16.16 0 1 1 .32 0l.24 2.08a.16.16 0 0 1-.14.18zM27.31 49.34a.16.16 0 0 1-.16-.15L27.07 48a.16.16 0 0 1 .15-.17.16.16 0 0 1 .17.15l.08 1.19a.16.16 0 0 1-.15.17zM26.22 49.04a.16.16 0 0 1-.16-.16v-.84a.16.16 0 0 1 .16-.16.16.16 0 0 1 .16.16v.84a.16.16 0 0 1-.16.16z"/></g><g xmlns="http://www.w3.org/2000/svg"><path d="M40.75 46.77a.16.16 0 0 1-.13-.07l-2-2.8a.161.161 0 0 1 .26-.19l2 2.8a.16.16 0 0 1-.13.26zM41.43 45.68a.16.16 0 0 1-.13-.06l-1.89-2.36a.16.16 0 0 1 .25-.2l1.89 2.36a.16.16 0 0 1-.12.26zM41.72 44.25a.16.16 0 0 1-.12-.05l-1.38-1.57a.16.16 0 1 1 .24-.21l1.38 1.57a.16.16 0 0 1-.12.26zM41.92 42.84a.16.16 0 0 1-.12 0l-.83-.86a.178.178 0 0 1 .19-.3l.83.86a.16.16 0 0 1-.07.3zM42.42 41.83a.16.16 0 0 1-.11 0l-.61-.58a.16.16 0 0 1 .22-.23l.61.58a.16.16 0 0 1-.11.23zM39.53 47.08a.16.16 0 0 1-.13-.07l-1.66-2.52a.162.162 0 1 1 .27-.18l1.66 2.52a.16.16 0 0 1 0 .22zM38.07 46.9a.16.16 0 0 1-.14-.08l-1.07-1.8a.161.161 0 1 1 .28-.16l1.02 1.82a.16.16 0 0 1-.06.22zM36.66 46.68a.16.16 0 0 1-.14-.09l-.56-1.05a.16.16 0 0 1 .28-.15l.56 1.05a.16.16 0 0 1-.07.22zM35.55 46.83a.16.16 0 0 1-.15-.09l-.36-.76a.161.161 0 1 1 .29-.14l.36.76a.16.16 0 0 1-.08.21z"/></g><g xmlns="http://www.w3.org/2000/svg"><path d="M47.9 38.84h-.08l-3-1.73a.161.161 0 0 1 .16-.28l3 1.73a.16.16 0 0 1-.08.28zM48.09 37.59h-.07l-2.68-1.39a.163.163 0 1 1 .15-.29l2.68 1.39a.16.16 0 0 1-.08.29zM47.76 36.15h-.07l-1.9-.87a.16.16 0 0 1 .13-.29l1.9.87a.16.16 0 0 1-.06.29zM47.37 34.78h-.06l-1.1-.45a.162.162 0 0 1 .12-.3l1.1.45a.16.16 0 0 1-.06.3zM47.42 33.68h-.05l-.79-.28a.16.16 0 1 1 .11-.3l.79.28a.16.16 0 0 1-.06.3zM46.91 39.63h-.09L44.28 38a.16.16 0 1 1 .17-.27l2.54 1.63a.16.16 0 0 1-.08.27zM45.5 40.06a.16.16 0 0 1-.09 0l-1.71-1.21a.161.161 0 1 1 .19-.26l1.71 1.21a.16.16 0 0 1-.1.26zM44.16 40.41a.16.16 0 0 1-.1 0l-.94-.73a.16.16 0 1 1 .2-.25l.94.73a.16.16 0 0 1-.1.25zM43.16 41.02a.16.16 0 0 1-.1 0l-.64-.55a.16.16 0 1 1 .21-.24l.64.55a.16.16 0 0 1-.11.24z"/></g><g xmlns="http://www.w3.org/2000/svg"><path d="M51.16 28.68l-3.44-.36a.16.16 0 0 1-.14-.18.16.16 0 0 1 .18-.14l3.44.36a.161.161 0 0 1-.04.32zM50.87 27.47l-3-.18a.16.16 0 0 1-.15-.17.16.16 0 0 1 .17-.15l3 .18a.16.16 0 0 1-.02.32zM49.98 26.3h-2.09a.16.16 0 0 1 0-.32h2.09a.16.16 0 0 1 0 .32zM47.88 25.24a.16.16 0 0 1 0-.32h1.19a.17.17 0 0 1 .17.16.16.16 0 0 1-.16.17h-1.19zM47.82 24.22a.16.16 0 0 1 0-.32l.84-.07a.16.16 0 0 1 .17.15.16.16 0 0 1-.15.17l-.84.07zM50.62 29.82l-3-.45a.16.16 0 0 1 0-.32l3 .45a.16.16 0 0 1 0 .32zM49.51 30.78l-2.05-.41a.163.163 0 1 1 .06-.32l2.05.41a.163.163 0 0 1-.06.32zM48.39 31.68l-1.16-.29a.16.16 0 0 1 .08-.31l1.16.29a.16.16 0 0 1-.08.31zM47.77 32.61l-.8-.24a.161.161 0 1 1 .09-.31l.8.24a.161.161 0 0 1-.09.31z"/></g><g xmlns="http://www.w3.org/2000/svg"><path d="M46.81 19.15a.16.16 0 0 1 0-.31l3.29-1.07a.163.163 0 1 1 .1.31l-3.29 1.07zM46.47 18.17a.16.16 0 0 1-.06-.31l2.83-1.07a.16.16 0 1 1 .11.3l-2.83 1.07h-.06zM46.09 17.21a.16.16 0 0 1-.06-.31l1.92-.83a.163.163 0 0 1 .13.3l-1.92.83h-.06zM45.66 16.28a.16.16 0 0 1-.07-.31l1.07-.52a.161.161 0 1 1 .14.29l-1.07.52zM45.16 15.37a.16.16 0 0 1-.08-.3l.74-.4a.16.16 0 0 1 .15.28l-.74.4zM47.16 20.14a.16.16 0 0 1 0-.32l2.91-.8a.161.161 0 0 1 .09.31l-2.91.8zM47.36 21.14a.16.16 0 0 1 0-.32l2-.46a.16.16 0 0 1 .19.12.16.16 0 0 1-.12.19l-2 .46zM47.56 22.14a.16.16 0 0 1 0-.32l1.17-.21a.16.16 0 0 1 .19.13.16.16 0 0 1-.13.19l-1.17.21zM47.72 23.16a.16.16 0 0 1 0-.32l.83-.11a.16.16 0 0 1 0 .32l-.83.11z"/></g><g xmlns="http://www.w3.org/2000/svg"><path d="M42.16 11.14a.16.16 0 0 1-.11-.28l2.57-2.31a.163.163 0 0 1 .22.24l-2.57 2.31a.16.16 0 0 1-.11.04zM41.49 10.39a.16.16 0 0 1-.11-.28l2.15-2.12a.163.163 0 1 1 .23.23l-2.15 2.12a.16.16 0 0 1-.12.05zM40.75 9.68a.16.16 0 0 1-.12-.27l1.42-1.54a.163.163 0 0 1 .24.22l-1.42 1.54a.16.16 0 0 1-.12.05zM39.98 9a.16.16 0 0 1-.1 0 .16.16 0 0 1 0-.23l.77-.91a.163.163 0 0 1 .25.21l-.77.91a.16.16 0 0 1-.15.02zM39.16 8.35a.16.16 0 0 1-.13-.26l.51-.67a.164.164 0 0 1 .26.2l-.51.67a.16.16 0 0 1-.13.06zM42.88 11.93a.16.16 0 0 1-.1-.29l2.34-1.92a.16.16 0 1 1 .2.25l-2.34 1.92a.16.16 0 0 1-.1.04zM43.51 12.74a.16.16 0 0 1-.1-.29l1.68-1.25a.161.161 0 1 1 .19.26l-1.67 1.22a.16.16 0 0 1-.1.06zM44.11 13.58a.16.16 0 0 1-.09-.29l1-.67a.162.162 0 1 1 .18.27l-1 .67a.16.16 0 0 1-.09.02zM44.66 14.44a.16.16 0 0 1-.08-.3l.72-.44a.16.16 0 1 1 .17.27l-.72.44z"/></g><g xmlns="http://www.w3.org/2000/svg"><path d="M34.74 5.68h-.07a.16.16 0 0 1-.08-.21L36 2.31a.16.16 0 0 1 .29.13L34.88 5.6a.16.16 0 0 1-.14.08zM33.78 5.31h-.06a.16.16 0 0 1-.09-.21l1.1-2.81a.162.162 0 1 1 .3.12l-1.1 2.81a.16.16 0 0 1-.15.09zM32.81 4.96h-.05a.16.16 0 0 1-.1-.2l.67-2a.16.16 0 1 1 .3.1l-.67 2a.16.16 0 0 1-.15.1zM31.83 4.68a.16.16 0 0 1-.11-.2l.33-1.14a.161.161 0 0 1 .31.09l-.33 1.14a.16.16 0 0 1-.2.11zM30.84 4.39a.16.16 0 0 1-.12-.19l.19-.82a.16.16 0 0 1 .19-.12.16.16 0 0 1 .12.19l-.19.82a.16.16 0 0 1-.19.12zM35.68 6.15h-.07a.16.16 0 0 1-.07-.22l1.36-2.7a.161.161 0 0 1 .29.14l-1.36 2.7a.16.16 0 0 1-.15.08zM36.58 6.68h-.08a.16.16 0 0 1-.06-.22l1-1.82a.161.161 0 1 1 .28.16l-1 1.82a.16.16 0 0 1-.14.06zM37.47 7.16h-.09a.16.16 0 0 1-.05-.22l.63-1a.16.16 0 1 1 .27.17l-.63 1a.16.16 0 0 1-.13.05zM38.33 7.68a.16.16 0 0 1-.09 0 .16.16 0 0 1 0-.22l.48-.69a.16.16 0 0 1 .26.18l-.48.69a.16.16 0 0 1-.17.04z"/></g></g><g data-name="icon" fill="#40a1d2" data="id:7199517" transform="translate(296.62904176605815,167.5748211036892) scale(0.6484955751369645)">
    
 <path d="m76.793 93.5c-0.73438-2.2578-3.0938-4.3438-6.5234-5.9922-4.5156-2.168-10.793-3.5117-17.762-3.5117s-13.25 1.3398-17.762 3.5117c-3.4336 1.6484-5.7891 3.7305-6.5234 5.9922h48.578zm-7.8945-42.137c0.80859-0.14844 1.5938 0.39062 1.7383 1.1992 0.14844 0.80859-0.39062 1.5938-1.1992 1.7383-3.2617 0.60156-6.2266 1.5742-8.8789 2.9297-1.9492 0.99219-3.7305 2.1875-5.3438 3.5859 7.3047 2.8008 13.297 2.8008 17.965-0.011718 4.6406-2.793 8.1172-8.3945 10.426-16.789-2.0938 0.92969-4.1914 1.6484-6.2891 2.207-3.0625 0.82031-6.1328 1.3086-9.1914 1.6484-3.7656 0.42188-6.793 1.8203-9.1016 4.0547-1.3438 1.3008-2.457 2.8906-3.3438 4.7422 1.1172-0.77734 2.293-1.4805 3.5273-2.1133 2.8945-1.4766 6.1328-2.543 9.6992-3.1992zm-33.328 2.9414c-0.80859-0.14844-1.3516-0.92578-1.1992-1.7383 0.14844-0.80859 0.92578-1.3516 1.7383-1.1992 3.5664 0.65234 6.8047 1.7227 9.6992 3.1992 1.2344 0.62891 2.4102 1.332 3.5273 2.1133-0.88672-1.8555-2-3.4453-3.3438-4.7422-2.3086-2.2305-5.3398-3.6328-9.1016-4.0547-3.0586-0.34375-6.1289-0.83203-9.1914-1.6484-2.0977-0.5625-4.1953-1.2773-6.2891-2.207 2.3086 8.3984 5.7852 13.996 10.426 16.789 4.668 2.8125 10.656 2.8125 17.965 0.011719-1.6094-1.3984-3.3945-2.5938-5.3438-3.5859-2.6562-1.3516-5.6172-2.3281-8.8789-2.9297zm-14.957-43.266c-0.58594 0.58594-1.5352 0.58594-2.1211 0-0.58594-0.58594-0.58594-1.5352 0-2.1211l4.9805-4.9805c0.58594-0.58594 1.5352-0.58594 2.1211 0l4.9805 4.9805c0.58594 0.58594 0.58594 1.5352 0 2.1211-0.58594 0.58594-1.5352 0.58594-2.1211 0l-2.4219-2.4219v10.68c0 0.82812-0.67188 1.5-1.5 1.5s-1.5-0.67188-1.5-1.5v-10.68l-2.4219 2.4219zm58.48 10.133c-0.58594 0.58594-1.5352 0.58594-2.1211 0-0.58594-0.58594-0.58594-1.5352 0-2.1211l4.9805-4.9805c0.58594-0.58594 1.5352-0.58594 2.1211 0l4.9805 4.9805c0.58594 0.58594 0.58594 1.5352 0 2.1211-0.58594 0.58594-1.5352 0.58594-2.1211 0l-2.4219-2.4219v10.68c0 0.82812-0.67188 1.5-1.5 1.5s-1.5-0.67188-1.5-1.5v-10.68l-2.4219 2.4219zm-1.8789 55.648c-0.58594 0.58594-1.5352 0.58594-2.1211 0-0.58594-0.58594-0.58594-1.5352 0-2.1211l4.9805-4.9805c0.58594-0.58594 1.5352-0.58594 2.1211 0l4.9805 4.9805c0.58594 0.58594 0.58594 1.5352 0 2.1211-0.58594 0.58594-1.5352 0.58594-2.1211 0l-2.4219-2.4219v10.68c0 0.82812-0.67187 1.5-1.5 1.5-0.82812 0-1.5-0.67188-1.5-1.5v-10.68l-2.4219 2.4219zm-64.148-12.566c-0.58594 0.58594-1.5352 0.58594-2.1211 0-0.58594-0.58594-0.58594-1.5352 0-2.1211l4.9805-4.9805c0.58594-0.58594 1.5352-0.58594 2.1211 0l4.9805 4.9805c0.58594 0.58594 0.58594 1.5352 0 2.1211-0.58594 0.58594-1.5352 0.58594-2.1211 0l-2.4219-2.4219v10.68c0 0.82812-0.67188 1.5-1.5 1.5s-1.5-0.67188-1.5-1.5v-10.68l-2.4219 2.4219zm40.938-28.211c0 0.82812-0.67188 1.5-1.5 1.5s-1.5-0.67188-1.5-1.5v-1.2617c-1.0547-0.27344-1.9961-0.82031-2.7461-1.5703-1.0859-1.0859-1.7578-2.5898-1.7578-4.2461 0-0.82812 0.67188-1.5 1.5-1.5s1.5 0.67188 1.5 1.5 0.33984 1.5859 0.87891 2.125c0.53516 0.53516 1.2734 0.87109 2.0859 0.87891h0.078125c0.8125-0.011719 1.5508-0.34375 2.0859-0.87891 0.54297-0.54297 0.87891-1.2969 0.87891-2.125s-0.33984-1.582-0.87891-2.125c-0.54297-0.54297-1.293-0.87891-2.125-0.87891-1.6562 0-3.1602-0.67188-4.2461-1.7578-1.0859-1.0859-1.7578-2.5898-1.7578-4.2461s0.67188-3.1602 1.7578-4.2461c0.74609-0.74609 1.6875-1.3008 2.7461-1.5703v-1.2617c0-0.82812 0.67188-1.5 1.5-1.5s1.5 0.67188 1.5 1.5v1.2617c1.0547 0.27344 1.9961 0.82031 2.7461 1.5703 1.0859 1.0859 1.7578 2.5898 1.7578 4.2461 0 0.82812-0.67187 1.5-1.5 1.5-0.82812 0-1.5-0.67188-1.5-1.5s-0.33984-1.5859-0.87891-2.125c-0.53516-0.53516-1.2734-0.87109-2.0859-0.87891h-0.078125c-0.8125 0.011719-1.5508 0.34375-2.0859 0.87891-0.54297 0.54297-0.87891 1.2969-0.87891 2.125s0.33984 1.582 0.87891 2.125c0.54297 0.54297 1.293 0.87891 2.125 0.87891 1.6562 0 3.1602 0.67187 4.2461 1.7578s1.7578 2.5898 1.7578 4.2461-0.67187 3.1602-1.7578 4.2461c-0.74609 0.74609-1.6875 1.3008-2.7461 1.5703zm-1.5-31.066c5.3789 0 10.25 2.1797 13.777 5.707 3.5234 3.5234 5.707 8.3984 5.707 13.777 0 5.375-2.1836 10.25-5.7109 13.773-3.5234 3.5273-8.3945 5.7109-13.773 5.7109-5.375 0-10.246-2.1797-13.773-5.707l-0.007813-0.007812c-3.5234-3.5273-5.7031-8.3984-5.7031-13.766 0-5.3789 2.1797-10.25 5.707-13.777l0.089844-0.085938c3.5234-3.4766 8.3594-5.625 13.688-5.625zm11.656 7.8281c-2.9805-2.9805-7.1055-4.8281-11.656-4.8281-4.5195 0-8.6133 1.8164-11.586 4.7539l-0.070313 0.074219c-2.9805 2.9805-4.8281 7.1055-4.8281 11.656 0 4.5547 1.8438 8.6797 4.8203 11.656 2.9805 2.9844 7.1055 4.8281 11.66 4.8281 4.5508 0 8.6719-1.8438 11.656-4.8281 2.9844-2.9805 4.8281-7.1016 4.8281-11.656 0-4.5508-1.8438-8.6719-4.8281-11.656zm23.129 28.773c-2.4609 10.965-6.6523 18.23-12.562 21.797-5.5352 3.332-12.445 3.3945-20.723 0.1875v17.457c6.8125 0.18359 12.977 1.5977 17.555 3.7969 5.2383 2.5156 8.4766 6.1094 8.4766 10.188 0 0.82812-0.67188 1.5-1.5 1.5h-52.062c-0.82812 0-1.5-0.67188-1.5-1.5 0-4.0742 3.2383-7.6719 8.4766-10.188 4.5703-2.1953 10.738-3.6133 17.555-3.7969v-17.457c-8.2773 3.207-15.188 3.1445-20.723-0.1875-5.918-3.5625-10.105-10.832-12.562-21.797-0.074219-0.34375-0.03125-0.71094 0.14844-1.043 0.39453-0.72266 1.3008-0.99219 2.0273-0.59766 2.8242 1.5469 5.6953 2.6211 8.5742 3.3945 2.9023 0.77344 5.8242 1.2422 8.75 1.5664 4.4531 0.49609 8.0625 2.1797 10.848 4.8711 1.8594 1.7969 3.3359 4.0312 4.4414 6.6523 1.1016-2.6172 2.5781-4.8555 4.4414-6.6523 2.7852-2.6953 6.3945-4.3789 10.848-4.8711 2.9219-0.32813 5.8477-0.79297 8.75-1.5664 2.8828-0.76953 5.75-1.8477 8.5742-3.3945 0.72266-0.39453 1.6328-0.125 2.0273 0.59766 0.17969 0.32812 0.22266 0.70312 0.14844 1.043z"/>

    </g><g data-name="business_name" fill="#4e535a" data="id:78" transform="translate(8.443082755575402,150.13250017223515) scale(1.2060540590366848)"><path d="M26.11328125,36.5234375l-16.0546875,0l0-5.1171875l16.0546875,0l0,5.1171875z M28.37890625,25.0390625l-20.3515625,0l0,22.9296875l-5.078125,0l0-25.44921875q0-0.52734375,0.1953125-0.99609375t0.537109375-0.8203125t0.810546875-0.546875t1.015625-0.1953125l22.87109375,0l0,5.078125z M37.0703125,22.51953125l-5.078125,0l0-4.58984375l5.078125,0l0,4.58984375z M37.0703125,47.96875l-5.078125,0l0-21.11328125l5.078125,0l0,21.11328125z M65.33203125,47.96875l-5.078125,0l0-11.71875q0-0.99609375-0.341796875-1.787109375t-0.927734375-1.357421875t-1.376953125-0.869140625t-1.708984375-0.302734375l-8.88671875,0l0,16.03515625l-5.078125,0l0-18.59375q0-0.52734375,0.1953125-0.986328125t0.546875-0.80078125t0.8203125-0.537109375t0.99609375-0.1953125l11.4453125,0q0.95703125,0,2.021484375,0.21484375t2.109375,0.693359375t1.9921875,1.2109375t1.6796875,1.77734375t1.162109375,2.412109375t0.4296875,3.0859375l0,11.71875z M95.6640625,25.0390625l-11.19140625,0l0,22.9296875l-5.078125,0l0-22.9296875l-11.2109375,0l0-5.078125l27.48046875,0l0,5.078125z M117.3046875,31.93359375l-11.42578125,0q-1.03515625,0-1.5625,0.517578125t-0.52734375,1.513671875l0,14.00390625l-5.078125,0l0-14.00390625q0-1.30859375,0.33203125-2.34375t0.888671875-1.826171875t1.279296875-1.34765625t1.513671875-0.908203125t1.6015625-0.517578125t1.513671875-0.166015625l11.46484375,0l0,5.078125z M142.44140625,40.9765625q0,1.0546875-0.37109375,2.275390625t-1.201171875,2.265625t-2.16796875,1.748046875t-3.251953125,0.703125l-9.16015625,0q-1.0546875,0-2.275390625-0.37109375t-2.265625-1.201171875t-1.748046875-2.16796875t-0.703125-3.251953125q0-1.0546875,0.37109375-2.28515625t1.201171875-2.275390625t2.16796875-1.748046875t3.251953125-0.703125l9.16015625,0l0,4.84375l-9.16015625,0q-1.03515625,0-1.6015625,0.634765625t-0.56640625,1.572265625q0,0.99609375,0.654296875,1.552734375t1.552734375,0.556640625l9.12109375,0q1.03515625,0,1.6015625-0.625t0.56640625-1.5625l0-7.08984375q0-0.99609375-0.615234375-1.58203125t-1.552734375-0.5859375l-11.15234375,0l0-4.82421875l11.15234375,0q1.0546875,0,2.275390625,0.37109375t2.265625,1.201171875t1.748046875,2.16796875t0.703125,3.251953125l0,7.12890625z M167.2265625,47.96875l-13.76953125,0q-1.0546875,0-2.3046875-0.37109375t-2.314453125-1.220703125t-1.77734375-2.20703125t-0.712890625-3.330078125l0-6.875q0-0.72265625,0.166015625-1.5234375t0.517578125-1.591796875t0.908203125-1.513671875t1.34765625-1.26953125t1.826171875-0.87890625t2.34375-0.33203125l13.76953125,0l0,5.078125l-13.76953125,0q-0.99609375,0-1.513671875,0.5078125t-0.517578125,1.5625l0,6.8359375q0,0.99609375,0.52734375,1.5234375t1.54296875,0.52734375l13.73046875,0l0,5.078125z M196.23046875,47.96875l-7.32421875,0l-10.234375-9.8828125q-0.859375-0.78125-0.80078125-1.953125q0.0390625-0.546875,0.283203125-1.025390625t0.673828125-0.810546875l9.27734375-7.48046875l8.125,0l-11.953125,9.62890625z M176.58203125,47.96875l-5.078125,0l0-30.0390625l5.078125,0l0,30.0390625z"/></g><g data-name="slogan" fill="#40a1d2" data="id:20" transform="translate(46.56129404326326,213.43082788767657) scale(0.25910487773721996)"><path d="M17.34375,23.828125q-0.625-0.859375-1.376953125-1.318359375t-1.650390625-0.703125t-1.796875-0.244140625q-1.484375,0-2.59765625,0.341796875t-1.845703125,0.927734375t-1.103515625,1.3671875t-0.37109375,1.640625q0,1.2890625,0.458984375,2.080078125t1.162109375,1.26953125t1.552734375,0.751953125t1.630859375,0.546875l3.9453125,1.2890625q1.77734375,0.56640625,3.134765625,1.2890625t2.275390625,1.708984375t1.396484375,2.275390625t0.478515625,2.98828125q0,1.8359375-0.751953125,3.3984375t-2.099609375,2.71484375t-3.212890625,1.806640625t-4.091796875,0.654296875q-2.28515625,0-3.90625-0.517578125t-2.724609375-1.38671875t-1.767578125-1.982421875t-1.03515625-2.28515625l-1.484375,0l0-3.359375l4.921875,0q0,2.16796875,0.458984375,3.06640625t1.279296875,1.494140625t1.953125,0.8984375t2.5,0.302734375q1.328125,0,2.392578125-0.3125t1.81640625-0.908203125t1.15234375-1.4453125t0.400390625-1.923828125q0-1.19140625-0.498046875-2.021484375t-1.279296875-1.416015625t-1.708984375-0.95703125t-1.787109375-0.64453125l-4.27734375-1.2109375q-1.40625-0.4296875-2.568359375-1.09375t-1.9921875-1.62109375t-1.279296875-2.236328125t-0.44921875-2.958984375q0-1.69921875,0.6640625-3.18359375t1.953125-2.59765625t3.154296875-1.748046875t4.267578125-0.634765625q1.58203125,0,2.919921875,0.37109375t2.421875,1.044921875t1.9140625,1.62109375t1.396484375,2.080078125l1.46484375,0l0,3.359375l-4.78515625,0q0-1.71875-0.625-2.578125z M25.5859375,27.734375l6.4453125,0l0,2.36328125l0.0390625,0q0.6640625-0.56640625,1.396484375-1.064453125t1.533203125-0.869140625t1.669921875-0.5859375t1.806640625-0.21484375q2.1875,0,3.76953125,0.810546875t2.44140625,2.529296875q0.7421875-0.6640625,1.5625-1.279296875t1.708984375-1.064453125t1.865234375-0.72265625t2.03125-0.2734375q1.640625,0,2.94921875,0.44921875t2.2265625,1.3671875t1.396484375,2.353515625t0.478515625,3.388671875l0,9.6875l2.8125,0l0,3.359375l-9.453125,0l0-3.359375l2.8515625,0l0-9.23828125q0-2.32421875-1.171875-3.525390625t-3.37890625-1.201171875q-1.30859375,0-2.67578125,0.625t-2.34375,1.58203125l0,11.7578125l2.79296875,0l0,3.359375l-9.43359375,0l0-3.359375l2.8515625,0l0-9.23828125q0-2.32421875-1.181640625-3.525390625t-3.388671875-1.201171875q-1.26953125,0-2.55859375,0.60546875t-2.44140625,1.50390625l0,11.85546875l2.8515625,0l0,3.359375l-9.453125,0l0-3.359375l2.8125,0l0-13.515625l-2.8125,0l0-3.359375z M77.51953125,46.09375q-1.15234375,1.07421875-2.548828125,1.7578125t-3.173828125,0.68359375q-1.484375,0-2.724609375-0.46875t-2.138671875-1.279296875t-1.396484375-1.884765625t-0.498046875-2.28515625q0-1.2890625,0.380859375-2.28515625t1.015625-1.728515625t1.484375-1.23046875t1.77734375-0.80078125t1.89453125-0.4296875t1.845703125-0.126953125q1.40625,0,2.36328125,0.087890625t1.73828125,0.244140625l0.01953125-1.66015625q0-1.07421875-0.3125-1.865234375t-0.87890625-1.30859375t-1.357421875-0.771484375t-1.767578125-0.25390625q-0.91796875,0-1.7578125,0.126953125t-1.572265625,0.33203125t-1.34765625,0.46875t-1.044921875,0.556640625l-1.19140625-2.51953125q0.72265625-0.46875,1.58203125-0.869140625t1.806640625-0.68359375t1.93359375-0.44921875t1.943359375-0.166015625q1.7578125,0,3.1640625,0.419921875t2.3828125,1.298828125t1.50390625,2.236328125t0.52734375,3.251953125l-0.01953125,10.1171875l2.24609375,0l0,3.359375l-5.87890625,0l0-1.875z M72.59765625,45.48828125q0.72265625,0,1.4453125-0.17578125t1.3671875-0.478515625t1.19140625-0.703125t0.91796875-0.830078125l0.01953125-4.5703125l-4.21875,0q-1.0546875,0-1.923828125,0.234375t-1.50390625,0.68359375t-0.986328125,1.11328125t-0.3515625,1.5234375q0,0.80078125,0.29296875,1.396484375t0.830078125,0.99609375t1.279296875,0.60546875t1.640625,0.205078125z M102.05078125,32.01171875l-3.7109375,0l0-1.25q-0.64453125,0-1.318359375,0.244140625t-1.259765625,0.7421875t-1.025390625,1.26953125t-0.634765625,1.826171875l0,9.765625l3.4375,0l0,3.359375l-10.0390625,0l0-3.359375l2.79296875,0l0.01953125-13.515625l-2.8125,0l0-3.359375l6.46484375,0l0,2.79296875q0.3515625-0.625,0.791015625-1.162109375t0.9765625-0.9375t1.19140625-0.625t1.416015625-0.224609375l1.9140625,0t1.796875,0.0390625l0,4.39453125z M112.109375,27.734375l4.74609375,0l0,2.94921875l-4.78515625,0l-0.05859375,11.6796875q0,1.19140625,0.2734375,1.93359375t0.87890625,1.025390625t1.3671875,0.283203125q0.8203125,0,1.4453125-0.146484375t1.3671875-0.498046875l0.83984375,2.44140625q-0.9375,0.48828125-1.97265625,0.771484375t-2.44140625,0.283203125q-1.328125,0-2.314453125-0.322265625t-1.66015625-1.083984375t-1.005859375-2.041015625t-0.33203125-3.193359375l0.05859375-11.1328125l-3.22265625,0l0-2.94921875l3.26171875,0l0-4.84375l3.5546875-1.6796875l0,6.5234375z M124.5703125,38.3203125q0,0.859375,0.126953125,1.572265625t0.361328125,1.357421875q0.72265625,1.953125,2.314453125,2.939453125t3.603515625,0.986328125q1.58203125,0,3.076171875-0.439453125t3.134765625-1.376953125l1.46484375,2.48046875q-1.9921875,1.3671875-4.00390625,2.03125t-4.1796875,0.6640625q-2.05078125,0-3.798828125-0.68359375t-3.0078125-2.03125t-1.97265625-3.359375t-0.712890625-4.6875q0-2.16796875,0.60546875-4.091796875t1.806640625-3.359375t2.978515625-2.275390625t4.140625-0.83984375q2.28515625,0,3.818359375,0.693359375t2.5,1.8359375t1.46484375,2.607421875t0.693359375,2.98828125q0.09765625,0.7421875,0.126953125,1.50390625t0.029296875,1.484375l-14.5703125,0z M130.25390625,30.25390625q-1.26953125,0-2.216796875,0.361328125t-1.611328125,1.03515625t-1.064453125,1.650390625t-0.595703125,2.1875l10.48828125,0q-0.078125-1.1328125-0.361328125-2.08984375t-0.869140625-1.66015625t-1.50390625-1.09375t-2.265625-0.390625z M158.6328125,32.01171875l-3.7109375,0l0-1.25q-0.64453125,0-1.318359375,0.244140625t-1.259765625,0.7421875t-1.025390625,1.26953125t-0.634765625,1.826171875l0,9.765625l3.4375,0l0,3.359375l-10.0390625,0l0-3.359375l2.79296875,0l0.01953125-13.515625l-2.8125,0l0-3.359375l6.46484375,0l0,2.79296875q0.3515625-0.625,0.791015625-1.162109375t0.9765625-0.9375t1.19140625-0.625t1.416015625-0.224609375l1.9140625,0t1.796875,0.0390625l0,4.39453125z M160.87890625,47.96875z M186.97265625,23.828125q-0.625-0.859375-1.376953125-1.318359375t-1.650390625-0.703125t-1.796875-0.244140625q-1.484375,0-2.59765625,0.341796875t-1.845703125,0.927734375t-1.103515625,1.3671875t-0.37109375,1.640625q0,1.2890625,0.458984375,2.080078125t1.162109375,1.26953125t1.552734375,0.751953125t1.630859375,0.546875l3.9453125,1.2890625q1.77734375,0.56640625,3.134765625,1.2890625t2.275390625,1.708984375t1.396484375,2.275390625t0.478515625,2.98828125q0,1.8359375-0.751953125,3.3984375t-2.099609375,2.71484375t-3.212890625,1.806640625t-4.091796875,0.654296875q-2.28515625,0-3.90625-0.517578125t-2.724609375-1.38671875t-1.767578125-1.982421875t-1.03515625-2.28515625l-1.484375,0l0-3.359375l4.921875,0q0,2.16796875,0.458984375,3.06640625t1.279296875,1.494140625t1.953125,0.8984375t2.5,0.302734375q1.328125,0,2.392578125-0.3125t1.81640625-0.908203125t1.15234375-1.4453125t0.400390625-1.923828125q0-1.19140625-0.498046875-2.021484375t-1.279296875-1.416015625t-1.708984375-0.95703125t-1.787109375-0.64453125l-4.27734375-1.2109375q-1.40625-0.4296875-2.568359375-1.09375t-1.9921875-1.62109375t-1.279296875-2.236328125t-0.44921875-2.958984375q0-1.69921875,0.6640625-3.18359375t1.953125-2.59765625t3.154296875-1.748046875t4.267578125-0.634765625q1.58203125,0,2.919921875,0.37109375t2.421875,1.044921875t1.9140625,1.62109375t1.396484375,2.080078125l1.46484375,0l0,3.359375l-4.78515625,0q0-1.71875-0.625-2.578125z M194.4140625,27.734375l6.4453125,0l0,1.6796875q1.2890625-0.99609375,2.8125-1.58203125t3.14453125-0.5859375q1.9921875,0,3.65234375,0.7421875t2.861328125,2.08984375t1.865234375,3.232421875t0.6640625,4.169921875q0,2.44140625-0.7421875,4.453125t-2.060546875,3.447265625t-3.134765625,2.236328125t-3.984375,0.80078125q-1.54296875,0-2.744140625-0.322265625t-2.294921875-0.830078125l0,6.54296875l3.1640625,0l0,3.359375l-9.609375,0l0-3.359375l2.7734375,0l0-22.71484375l-2.8125,0l0-3.359375z M205.859375,30.44921875q-1.40625,0-2.705078125,0.56640625t-2.255859375,1.5625l0,10.95703125q0.64453125,0.6640625,1.845703125,1.19140625t2.998046875,0.52734375q1.25,0,2.40234375-0.48828125t2.03125-1.455078125t1.40625-2.392578125t0.52734375-3.30078125q0-1.71875-0.498046875-3.046875t-1.34765625-2.24609375t-1.982421875-1.396484375t-2.421875-0.478515625z M223.046875,38.3203125q0,0.859375,0.126953125,1.572265625t0.361328125,1.357421875q0.72265625,1.953125,2.314453125,2.939453125t3.603515625,0.986328125q1.58203125,0,3.076171875-0.439453125t3.134765625-1.376953125l1.46484375,2.48046875q-1.9921875,1.3671875-4.00390625,2.03125t-4.1796875,0.6640625q-2.05078125,0-3.798828125-0.68359375t-3.0078125-2.03125t-1.97265625-3.359375t-0.712890625-4.6875q0-2.16796875,0.60546875-4.091796875t1.806640625-3.359375t2.978515625-2.275390625t4.140625-0.83984375q2.28515625,0,3.818359375,0.693359375t2.5,1.8359375t1.46484375,2.607421875t0.693359375,2.98828125q0.09765625,0.7421875,0.126953125,1.50390625t0.029296875,1.484375l-14.5703125,0z M228.73046875,30.25390625q-1.26953125,0-2.216796875,0.361328125t-1.611328125,1.03515625t-1.064453125,1.650390625t-0.595703125,2.1875l10.48828125,0q-0.078125-1.1328125-0.361328125-2.08984375t-0.869140625-1.66015625t-1.50390625-1.09375t-2.265625-0.390625z M255.87890625,44.609375l2.8515625,0l0-9.23828125q0-2.32421875-1.181640625-3.525390625t-3.388671875-1.201171875q-1.26953125,0-2.55859375,0.60546875t-2.44140625,1.50390625l0,11.85546875l2.8515625,0l0,3.359375l-9.453125,0l0-3.359375l2.8125,0l0-13.515625l-2.8125,0l0-3.359375l6.4453125,0l0,2.3828125l0.0390625,0q0.64453125-0.56640625,1.376953125-1.07421875t1.533203125-0.87890625t1.669921875-0.5859375t1.826171875-0.21484375q1.62109375,0,2.9296875,0.44921875t2.2265625,1.3671875t1.416015625,2.353515625t0.498046875,3.388671875l0,9.6875l2.8125,0l0,3.359375l-9.453125,0l0-3.359375z M281.171875,17.578125l6.38671875,0l0,27.03125l2.96875,0l0,3.359375l-6.6015625,0l0-1.66015625q-0.9765625,0.99609375-2.265625,1.552734375t-2.9296875,0.556640625q-2.05078125,0-3.818359375-0.712890625t-3.06640625-2.08984375t-2.03125-3.37890625t-0.732421875-4.580078125q0-2.34375,0.703125-4.267578125t1.9921875-3.28125t3.10546875-2.109375t4.04296875-0.751953125q1.46484375,0,2.67578125,0.322265625t2.32421875,1.123046875l0-7.75390625l-2.75390625,0l0-3.359375z M279.19921875,45.25390625q1.62109375,0,2.71484375-0.478515625t2.01171875-1.435546875l0-11.328125q-0.9765625-0.8203125-2.24609375-1.19140625t-2.59765625-0.37109375q-1.2890625,0-2.421875,0.478515625t-1.982421875,1.396484375t-1.337890625,2.24609375t-0.48828125,3.046875q0,1.875,0.46875,3.30078125t1.30859375,2.392578125t2.01171875,1.455078125t2.55859375,0.48828125z M293.84765625,27.734375l6.6015625,0l0,16.875l3.046875,0l0,3.359375l-9.609375,0l0-3.359375l2.890625,0l0-13.515625l-2.9296875,0l0-3.359375z M296.09375,20.56640625q0-0.5078125,0.205078125-0.966796875t0.546875-0.80078125t0.810546875-0.546875t0.99609375-0.205078125q0.5078125,0,0.966796875,0.205078125t0.80078125,0.546875t0.546875,0.80078125t0.205078125,0.966796875q0,0.52734375-0.205078125,0.99609375t-0.546875,0.830078125t-0.80078125,0.56640625t-0.966796875,0.205078125q-0.52734375,0-0.99609375-0.205078125t-0.810546875-0.56640625t-0.546875-0.830078125t-0.205078125-0.99609375z M320.15625,44.609375l2.8515625,0l0-9.23828125q0-2.32421875-1.181640625-3.525390625t-3.388671875-1.201171875q-1.26953125,0-2.55859375,0.60546875t-2.44140625,1.50390625l0,11.85546875l2.8515625,0l0,3.359375l-9.453125,0l0-3.359375l2.8125,0l0-13.515625l-2.8125,0l0-3.359375l6.4453125,0l0,2.3828125l0.0390625,0q0.64453125-0.56640625,1.376953125-1.07421875t1.533203125-0.87890625t1.669921875-0.5859375t1.826171875-0.21484375q1.62109375,0,2.9296875,0.44921875t2.2265625,1.3671875t1.416015625,2.353515625t0.498046875,3.388671875l0,9.6875l2.8125,0l0,3.359375l-9.453125,0l0-3.359375z M348.3203125,46.19140625q-0.99609375,1.0546875-2.314453125,1.640625t-2.998046875,0.5859375q-2.05078125,0-3.818359375-0.712890625t-3.06640625-2.08984375t-2.03125-3.37890625t-0.732421875-4.580078125q0-2.34375,0.703125-4.267578125t1.9921875-3.28125t3.10546875-2.109375t4.04296875-0.751953125q1.5234375,0,2.744140625,0.341796875t2.373046875,1.181640625l0-1.03515625l3.6328125,0l0,19.43359375q0,4.8046875-2.275390625,7.265625t-7.080078125,2.4609375q-1.0546875,0-2.20703125-0.15625t-2.275390625-0.498046875t-2.1875-0.869140625t-1.962890625-1.2890625l1.953125-2.94921875q0.5859375,0.5078125,1.337890625,0.9375t1.611328125,0.732421875t1.77734375,0.478515625t1.8359375,0.17578125q1.50390625,0,2.607421875-0.3125t1.81640625-1.103515625t1.064453125-2.138671875t0.3515625-3.41796875l0-0.29296875z M343.4765625,45.25390625q0.8984375,0,1.640625-0.17578125t1.34765625-0.458984375t1.064453125-0.654296875t0.791015625-0.78125l0-11.07421875q-0.99609375-0.87890625-2.294921875-1.26953125t-2.666015625-0.390625q-1.2890625,0-2.421875,0.478515625t-1.982421875,1.396484375t-1.337890625,2.24609375t-0.48828125,3.046875q0,1.875,0.46875,3.30078125t1.30859375,2.392578125t2.01171875,1.455078125t2.55859375,0.48828125z M359.00390625,42.44140625l4.27734375,1.6796875l-5.078125,10.48828125l-2.8125-1.03515625z M366.11328125,47.96875z M377.65625,44.609375l2.8125,0l0-22.87109375l-2.8125,0l0-3.41796875l13.3203125,0.0390625q1.796875,0,3.37890625,0.673828125t2.75390625,1.8359375t1.845703125,2.744140625t0.673828125,3.3984375q0,1.89453125-1.0546875,3.45703125t-3.0078125,2.5q0.95703125,0.5078125,1.73828125,1.181640625t1.328125,1.474609375t0.849609375,1.69921875t0.302734375,1.8359375q0,1.85546875-0.673828125,3.45703125t-1.845703125,2.79296875t-2.744140625,1.875t-3.369140625,0.68359375l-13.49609375,0l0-3.359375z M384.296875,34.8046875l0,9.8046875l6.89453125,0q0.9375,0,1.73828125-0.46875t1.40625-1.220703125t0.947265625-1.708984375t0.341796875-1.953125q0-0.859375-0.3515625-1.66015625t-0.947265625-1.42578125t-1.40625-0.99609375t-1.728515625-0.37109375l-6.89453125,0z M384.296875,21.73828125l0,9.66796875l6.71875,0q0.9375,0,1.748046875-0.37109375t1.40625-0.99609375t0.947265625-1.4453125t0.3515625-1.69921875q0-0.95703125-0.3515625-1.884765625t-0.95703125-1.650390625t-1.416015625-1.171875t-1.728515625-0.44921875l-6.71875,0z M406.66015625,38.3203125q0,0.859375,0.126953125,1.572265625t0.361328125,1.357421875q0.72265625,1.953125,2.314453125,2.939453125t3.603515625,0.986328125q1.58203125,0,3.076171875-0.439453125t3.134765625-1.376953125l1.46484375,2.48046875q-1.9921875,1.3671875-4.00390625,2.03125t-4.1796875,0.6640625q-2.05078125,0-3.798828125-0.68359375t-3.0078125-2.03125t-1.97265625-3.359375t-0.712890625-4.6875q0-2.16796875,0.60546875-4.091796875t1.806640625-3.359375t2.978515625-2.275390625t4.140625-0.83984375q2.28515625,0,3.818359375,0.693359375t2.5,1.8359375t1.46484375,2.607421875t0.693359375,2.98828125q0.09765625,0.7421875,0.126953125,1.50390625t0.029296875,1.484375l-14.5703125,0z M412.34375,30.25390625q-1.26953125,0-2.216796875,0.361328125t-1.611328125,1.03515625t-1.064453125,1.650390625t-0.595703125,2.1875l10.48828125,0q-0.078125-1.1328125-0.361328125-2.08984375t-0.869140625-1.66015625t-1.50390625-1.09375t-2.265625-0.390625z M432.03125,27.734375l4.74609375,0l0,2.94921875l-4.78515625,0l-0.05859375,11.6796875q0,1.19140625,0.2734375,1.93359375t0.87890625,1.025390625t1.3671875,0.283203125q0.8203125,0,1.4453125-0.146484375t1.3671875-0.498046875l0.83984375,2.44140625q-0.9375,0.48828125-1.97265625,0.771484375t-2.44140625,0.283203125q-1.328125,0-2.314453125-0.322265625t-1.66015625-1.083984375t-1.005859375-2.041015625t-0.33203125-3.193359375l0.05859375-11.1328125l-3.22265625,0l0-2.94921875l3.26171875,0l0-4.84375l3.5546875-1.6796875l0,6.5234375z M446.9140625,27.734375l4.74609375,0l0,2.94921875l-4.78515625,0l-0.05859375,11.6796875q0,1.19140625,0.2734375,1.93359375t0.87890625,1.025390625t1.3671875,0.283203125q0.8203125,0,1.4453125-0.146484375t1.3671875-0.498046875l0.83984375,2.44140625q-0.9375,0.48828125-1.97265625,0.771484375t-2.44140625,0.283203125q-1.328125,0-2.314453125-0.322265625t-1.66015625-1.083984375t-1.005859375-2.041015625t-0.33203125-3.193359375l0.05859375-11.1328125l-3.22265625,0l0-2.94921875l3.26171875,0l0-4.84375l3.5546875-1.6796875l0,6.5234375z M459.375,38.3203125q0,0.859375,0.126953125,1.572265625t0.361328125,1.357421875q0.72265625,1.953125,2.314453125,2.939453125t3.603515625,0.986328125q1.58203125,0,3.076171875-0.439453125t3.134765625-1.376953125l1.46484375,2.48046875q-1.9921875,1.3671875-4.00390625,2.03125t-4.1796875,0.6640625q-2.05078125,0-3.798828125-0.68359375t-3.0078125-2.03125t-1.97265625-3.359375t-0.712890625-4.6875q0-2.16796875,0.60546875-4.091796875t1.806640625-3.359375t2.978515625-2.275390625t4.140625-0.83984375q2.28515625,0,3.818359375,0.693359375t2.5,1.8359375t1.46484375,2.607421875t0.693359375,2.98828125q0.09765625,0.7421875,0.126953125,1.50390625t0.029296875,1.484375l-14.5703125,0z M465.05859375,30.25390625q-1.26953125,0-2.216796875,0.361328125t-1.611328125,1.03515625t-1.064453125,1.650390625t-0.595703125,2.1875l10.48828125,0q-0.078125-1.1328125-0.361328125-2.08984375t-0.869140625-1.66015625t-1.50390625-1.09375t-2.265625-0.390625z M493.4375,32.01171875l-3.7109375,0l0-1.25q-0.64453125,0-1.318359375,0.244140625t-1.259765625,0.7421875t-1.025390625,1.26953125t-0.634765625,1.826171875l0,9.765625l3.4375,0l0,3.359375l-10.0390625,0l0-3.359375l2.79296875,0l0.01953125-13.515625l-2.8125,0l0-3.359375l6.46484375,0l0,2.79296875q0.3515625-0.625,0.791015625-1.162109375t0.9765625-0.9375t1.19140625-0.625t1.416015625-0.224609375l1.9140625,0t1.796875,0.0390625l0,4.39453125z M495.68359375,47.96875z M521.77734375,23.828125q-0.625-0.859375-1.376953125-1.318359375t-1.650390625-0.703125t-1.796875-0.244140625q-1.484375,0-2.59765625,0.341796875t-1.845703125,0.927734375t-1.103515625,1.3671875t-0.37109375,1.640625q0,1.2890625,0.458984375,2.080078125t1.162109375,1.26953125t1.552734375,0.751953125t1.630859375,0.546875l3.9453125,1.2890625q1.77734375,0.56640625,3.134765625,1.2890625t2.275390625,1.708984375t1.396484375,2.275390625t0.478515625,2.98828125q0,1.8359375-0.751953125,3.3984375t-2.099609375,2.71484375t-3.212890625,1.806640625t-4.091796875,0.654296875q-2.28515625,0-3.90625-0.517578125t-2.724609375-1.38671875t-1.767578125-1.982421875t-1.03515625-2.28515625l-1.484375,0l0-3.359375l4.921875,0q0,2.16796875,0.458984375,3.06640625t1.279296875,1.494140625t1.953125,0.8984375t2.5,0.302734375q1.328125,0,2.392578125-0.3125t1.81640625-0.908203125t1.15234375-1.4453125t0.400390625-1.923828125q0-1.19140625-0.498046875-2.021484375t-1.279296875-1.416015625t-1.708984375-0.95703125t-1.787109375-0.64453125l-4.27734375-1.2109375q-1.40625-0.4296875-2.568359375-1.09375t-1.9921875-1.62109375t-1.279296875-2.236328125t-0.44921875-2.958984375q0-1.69921875,0.6640625-3.18359375t1.953125-2.59765625t3.154296875-1.748046875t4.267578125-0.634765625q1.58203125,0,2.919921875,0.37109375t2.421875,1.044921875t1.9140625,1.62109375t1.396484375,2.080078125l1.46484375,0l0,3.359375l-4.78515625,0q0-1.71875-0.625-2.578125z M541.9140625,46.09375q-1.15234375,1.07421875-2.548828125,1.7578125t-3.173828125,0.68359375q-1.484375,0-2.724609375-0.46875t-2.138671875-1.279296875t-1.396484375-1.884765625t-0.498046875-2.28515625q0-1.2890625,0.380859375-2.28515625t1.015625-1.728515625t1.484375-1.23046875t1.77734375-0.80078125t1.89453125-0.4296875t1.845703125-0.126953125q1.40625,0,2.36328125,0.087890625t1.73828125,0.244140625l0.01953125-1.66015625q0-1.07421875-0.3125-1.865234375t-0.87890625-1.30859375t-1.357421875-0.771484375t-1.767578125-0.25390625q-0.91796875,0-1.7578125,0.126953125t-1.572265625,0.33203125t-1.34765625,0.46875t-1.044921875,0.556640625l-1.19140625-2.51953125q0.72265625-0.46875,1.58203125-0.869140625t1.806640625-0.68359375t1.93359375-0.44921875t1.943359375-0.166015625q1.7578125,0,3.1640625,0.419921875t2.3828125,1.298828125t1.50390625,2.236328125t0.52734375,3.251953125l-0.01953125,10.1171875l2.24609375,0l0,3.359375l-5.87890625,0l0-1.875z M536.9921875,45.48828125q0.72265625,0,1.4453125-0.17578125t1.3671875-0.478515625t1.19140625-0.703125t0.91796875-0.830078125l0.01953125-4.5703125l-4.21875,0q-1.0546875,0-1.923828125,0.234375t-1.50390625,0.68359375t-0.986328125,1.11328125t-0.3515625,1.5234375q0,0.80078125,0.29296875,1.396484375t0.830078125,0.99609375t1.279296875,0.60546875t1.640625,0.205078125z M550.33203125,27.734375l6.9921875,0l0,3.359375l-1.89453125,0l5,13.9453125l4.8828125-13.9453125l-1.23046875,0l0-3.359375l6.40625,0l0,3.359375l-1.73828125,0l-6.62109375,17.1875l-3.59375,0l-6.6015625-17.1875l-1.6015625,0l0-3.359375z M573.22265625,27.734375l6.6015625,0l0,16.875l3.046875,0l0,3.359375l-9.609375,0l0-3.359375l2.890625,0l0-13.515625l-2.9296875,0l0-3.359375z M575.46875,20.56640625q0-0.5078125,0.205078125-0.966796875t0.546875-0.80078125t0.810546875-0.546875t0.99609375-0.205078125q0.5078125,0,0.966796875,0.205078125t0.80078125,0.546875t0.546875,0.80078125t0.205078125,0.966796875q0,0.52734375-0.205078125,0.99609375t-0.546875,0.830078125t-0.80078125,0.56640625t-0.966796875,0.205078125q-0.52734375,0-0.99609375-0.205078125t-0.810546875-0.56640625t-0.546875-0.830078125t-0.205078125-0.99609375z M599.53125,44.609375l2.8515625,0l0-9.23828125q0-2.32421875-1.181640625-3.525390625t-3.388671875-1.201171875q-1.26953125,0-2.55859375,0.60546875t-2.44140625,1.50390625l0,11.85546875l2.8515625,0l0,3.359375l-9.453125,0l0-3.359375l2.8125,0l0-13.515625l-2.8125,0l0-3.359375l6.4453125,0l0,2.3828125l0.0390625,0q0.64453125-0.56640625,1.376953125-1.07421875t1.533203125-0.87890625t1.669921875-0.5859375t1.826171875-0.21484375q1.62109375,0,2.9296875,0.44921875t2.2265625,1.3671875t1.416015625,2.353515625t0.498046875,3.388671875l0,9.6875l2.8125,0l0,3.359375l-9.453125,0l0-3.359375z M627.6953125,46.19140625q-0.99609375,1.0546875-2.314453125,1.640625t-2.998046875,0.5859375q-2.05078125,0-3.818359375-0.712890625t-3.06640625-2.08984375t-2.03125-3.37890625t-0.732421875-4.580078125q0-2.34375,0.703125-4.267578125t1.9921875-3.28125t3.10546875-2.109375t4.04296875-0.751953125q1.5234375,0,2.744140625,0.341796875t2.373046875,1.181640625l0-1.03515625l3.6328125,0l0,19.43359375q0,4.8046875-2.275390625,7.265625t-7.080078125,2.4609375q-1.0546875,0-2.20703125-0.15625t-2.275390625-0.498046875t-2.1875-0.869140625t-1.962890625-1.2890625l1.953125-2.94921875q0.5859375,0.5078125,1.337890625,0.9375t1.611328125,0.732421875t1.77734375,0.478515625t1.8359375,0.17578125q1.50390625,0,2.607421875-0.3125t1.81640625-1.103515625t1.064453125-2.138671875t0.3515625-3.41796875l0-0.29296875z M622.8515625,45.25390625q0.8984375,0,1.640625-0.17578125t1.34765625-0.458984375t1.064453125-0.654296875t0.791015625-0.78125l0-11.07421875q-0.99609375-0.87890625-2.294921875-1.26953125t-2.666015625-0.390625q-1.2890625,0-2.421875,0.478515625t-1.982421875,1.396484375t-1.337890625,2.24609375t-0.48828125,3.046875q0,1.875,0.46875,3.30078125t1.30859375,2.392578125t2.01171875,1.455078125t2.55859375,0.48828125z"/></g></svg>